<svg width="11" height="11" viewBox="0 0 11 11" fill="none" xmlns="http://www.w3.org/2000/svg">
<path d="M1.38421 0C0.61997 0 0 0.590813 0 1.32031C0 2.04981 0.61947 2.6543 1.38318 2.6543C2.1469 2.6543 2.76739 2.04981 2.76739 1.32031C2.76739 0.591313 2.14845 0 1.38421 0ZM8.13746 3.5C6.97513 3.5 6.31007 4.08023 5.99107 4.65723H5.95731V3.65527H3.66667V11H6.05348V7.36426C6.05348 6.40626 6.12923 5.48047 7.37119 5.48047C8.59533 5.48047 8.61319 6.5728 8.61319 7.4248V11H10.9969H11V6.96582C11 4.99182 10.5554 3.5 8.13746 3.5ZM0.19029 3.65527V11H2.57915V3.65527H0.19029Z" fill="white"/>
</svg>
