<svg width="11" height="10" viewBox="0 0 11 10" fill="none" xmlns="http://www.w3.org/2000/svg">
<path d="M10.3017 0.131317C10.1226 -0.0205659 9.8413 -0.0422976 9.55043 0.0744802H9.54995C9.24403 0.197228 0.890475 3.78033 0.55041 3.92672C0.488559 3.94821 -0.0516285 4.14976 0.00401412 4.59873C0.0536865 5.00351 0.487842 5.17115 0.540858 5.1905L2.66459 5.91767C2.80549 6.38669 3.3249 8.11711 3.43977 8.48678C3.51141 8.71723 3.62819 9.02004 3.83285 9.08237C4.01243 9.15163 4.19106 9.08834 4.30665 8.9976L5.60505 7.79328L7.70109 9.42793L7.751 9.45778C7.89333 9.52083 8.02969 9.55235 8.15984 9.55235C8.26038 9.55235 8.35686 9.53348 8.44904 9.49575C8.76307 9.36679 8.88869 9.06757 8.90182 9.03366L10.4675 0.895746C10.563 0.461113 10.4302 0.239975 10.3017 0.131317ZM4.53757 6.20854L3.82115 8.11902L3.10472 5.73092L8.59734 1.67116L4.53757 6.20854Z" fill="white"/>
</svg>
