<svg width="14" height="14" fill="none" xmlns="http://www.w3.org/2000/svg"><path d="M7 0C3.134 0 0 3.183 0 7.11c0 3.33 2.259 6.119 5.304 6.89a1.052 1.052 0 0 1-.054-.345v-1.216h-.88c-.479 0-.904-.209-1.11-.597-.23-.432-.27-1.093-.838-1.497-.169-.134-.04-.288.154-.267.359.103.656.353.936.724s.41.456.931.456c.253 0 .63-.015.987-.072.191-.494.522-.948.926-1.163-2.331-.243-3.443-1.421-3.443-3.02 0-.688.288-1.354.779-1.915-.161-.557-.364-1.693.062-2.126 1.049 0 1.683.691 1.835.878a5.172 5.172 0 0 1 1.7-.285c.604 0 1.18.103 1.704.286.15-.185.785-.879 1.837-.879.427.433.222 1.574.06 2.13.487.56.774 1.224.774 1.911 0 1.598-1.11 2.775-3.438 3.02.64.34 1.107 1.293 1.107 2.012v1.62c0 .061-.013.106-.02.158C12.04 12.843 14 10.212 14 7.11 14 3.183 10.866 0 7 0Z" fill="#fff"/></svg>