<svg width="11" height="10" fill="none" xmlns="http://www.w3.org/2000/svg"><path d="M10.302.131c-.18-.152-.46-.173-.752-.057C9.244.197.89 3.78.55 3.927c-.061.021-.602.223-.546.672.05.405.484.572.537.591l2.124.728c.14.469.66 2.2.775 2.569.071.23.188.533.393.595.18.07.358.006.474-.084l1.298-1.205 2.096 1.635.05.03c.142.063.279.094.409.094a.77.77 0 0 0 .289-.056.876.876 0 0 0 .453-.462L10.468.896C10.563.46 10.43.24 10.301.13ZM4.538 6.21l-.717 1.91-.716-2.388 5.492-4.06-4.06 4.538Z" fill="#fff"/></svg>